# xmcd
#
# Track frame offsets:
#	150
#	13775
#	29230
#	46657
#	58102
#	67315
#	80112
#	91355
#	104697
#	113585
#	128462
#	140760
#	153667
#	165192
#	175762
#	187750
#	200532
#	213365
#	227190
#	236650
#
# Disc length: 3335 seconds
#
# Revision: 0
# Processed by: cddbd v1.4PL0 Copyright (c) Steve Scherf et al.
# Submitted via: audiograbber 1.80.04
#
DISCID=1a0d0514
DTITLE=Country Anthems - This Is Country
DYEAR=1998
DGENRE=Country
TTITLE0=Don Williams - Where Do We Go From Here
TTITLE1=Tina Turner - If This Is Our Last Time
TTITLE2=Ferlin Huskey - Convoy
TTITLE3=Freddy Fender - She`s About A Mover
TTITLE4=Franky Lane - Rawhide
TTITLE5=Willie Nelson - I Just Don´t Understand
TTITLE6=Tammy Wynette - D.I.V.O.R.C.E
TTITLE7=Don Williams - Ruby Tuesday
TTITLE8=George Jones - The Love Bug
TTITLE9=Jeannie C Riley - Harper Valley PTA
TTITLE10=Faron Young - Country Girl
TTITLE11=Big Red Savage - Cowboys And Injuns
TTITLE12=Tina Turner - Soul Deep
TTITLE13=Barry Saddler - The Ballad Of the Green Berets
TTITLE14=Ricky Skaggs - Are You Proud of America
TTITLE15=Freddy Fender - Silver Wings
TTITLE16=Faron Young - It´s Four In The Morning
TTITLE17=Willie Nelson - Home Is Where You´re Happy
TTITLE18=Tex Ritter - Froggie Went A-Courtin
TTITLE19=Merle Haggart - GAmes Peoples Play
EXTD=
EXTT0=
EXTT1=
EXTT2=
EXTT3=
EXTT4=
EXTT5=
EXTT6=
EXTT7=
EXTT8=
EXTT9=
EXTT10=
EXTT11=
EXTT12=
EXTT13=
EXTT14=
EXTT15=
EXTT16=
EXTT17=
EXTT18=
EXTT19=
PLAYORDER=
